<svg xmlns="http://www.w3.org/2000/svg" xmlns:xlink="http://www.w3.org/1999/xlink" width="500" zoomAndPan="magnify" viewBox="0 0 375 374.999991" height="500" preserveAspectRatio="xMidYMid meet" version="1.0"><defs><g/></defs><g fill="#8c52ff" fill-opacity="1"><g transform="translate(23.740966, 284.278287)"><g><path d="M 341.125 61.171875 C 331.050781 63.804688 322.113281 65.125 314.3125 65.125 C 306.519531 65.125 299.625 64.644531 293.625 63.6875 C 287.632812 62.726562 281.21875 60.867188 274.375 58.109375 C 267.539062 55.347656 261.125 52.171875 255.125 48.578125 C 249.132812 44.984375 243.140625 40.546875 237.140625 35.265625 C 226.097656 26.390625 216.078125 16.789062 207.078125 6.46875 C 198.085938 -3.84375 180.757812 -23.210938 155.09375 -51.640625 C 129.425781 -80.066406 112.394531 -98.957031 104 -108.3125 C 95.601562 -117.664062 89.125 -122.582031 84.5625 -123.0625 L 84.5625 -126.671875 C 98.476562 -126.671875 107.773438 -126.96875 112.453125 -127.5625 C 117.128906 -128.164062 122.101562 -129.242188 127.375 -130.796875 C 132.65625 -132.359375 137.097656 -134.457031 140.703125 -137.09375 C 154.847656 -146.21875 161.921875 -161.332031 161.921875 -182.4375 C 161.921875 -199.945312 158.023438 -213.976562 150.234375 -224.53125 C 142.441406 -235.09375 131.46875 -240.492188 117.3125 -240.734375 L 72.6875 -240.734375 L 72.6875 -26.265625 C 72.6875 -20.265625 74.90625 -14.984375 79.34375 -10.421875 C 83.78125 -5.867188 89.238281 -3.59375 95.71875 -3.59375 L 100.03125 -3.59375 L 100.390625 0 L 21.59375 0 L 21.59375 -3.59375 L 26.265625 -3.59375 C 32.265625 -3.59375 37.539062 -5.75 42.09375 -10.0625 C 46.65625 -14.382812 49.054688 -19.664062 49.296875 -25.90625 L 49.296875 -225.625 C 49.054688 -231.863281 46.71875 -237.203125 42.28125 -241.640625 C 37.84375 -246.078125 32.503906 -248.296875 26.265625 -248.296875 L 21.59375 -248.296875 L 21.59375 -251.890625 L 118.75 -251.890625 C 139.863281 -251.890625 156.835938 -245.953125 169.671875 -234.078125 C 182.503906 -222.203125 188.921875 -206.488281 188.921875 -186.9375 C 188.921875 -167.382812 183.039062 -150.59375 171.28125 -136.5625 C 159.53125 -122.53125 145.140625 -115.515625 128.109375 -115.515625 C 128.109375 -115.515625 127.988281 -115.515625 127.75 -115.515625 C 135.90625 -106.878906 145.140625 -96.800781 155.453125 -85.28125 C 196.953125 -39.457031 223.578125 -10.671875 235.328125 1.078125 C 247.085938 12.835938 257.460938 22.492188 266.453125 30.046875 C 275.453125 37.597656 283.429688 43.175781 290.390625 46.78125 C 304.546875 54.457031 318.582031 58.296875 332.5 58.296875 C 335.375 58.296875 338.25 58.054688 341.125 57.578125 Z M 341.125 61.171875 "/></g></g></g></svg>